<svg id="Layer_1" data-name="Layer 1" xmlns="http://www.w3.org/2000/svg" xmlns:xlink="http://www.w3.org/1999/xlink" width="19.61cm" height="16.24cm" viewBox="0 0 555.99 460.33"><defs><style>.cls-1{fill:none;}.cls-2{fill:#7b63ff;}.cls-18,.cls-3{fill:#fff;}.cls-4{fill:#b8c4f8;}.cls-5{fill:#00ccbe;}.cls-6{fill:#04ad9d;}.cls-7{clip-path:url(#clip-path);}.cls-8{fill:#1e1e77;}.cls-9{fill:#06015f;}.cls-10{fill:#f2b5bc;}.cls-11{fill:#f48d8c;}.cls-12{fill:#ffd974;}.cls-13{fill:#f9c146;}.cls-14{fill:#ff4c8b;}.cls-15{fill:#ffbcac;}.cls-16{fill:#ff9695;}.cls-17{fill:#4d3eda;}.cls-18{font-size:14.57px;font-family:BeVietnam-Medium, BeVietnam Medium;}.cls-19{letter-spacing:0em;}.cls-20{fill:#fcc64c;}</style><clipPath id="clip-path"><path class="cls-1" d="M306.2,120.35s48.88,17.78,84.63,0c0,0,48.33,12.31,69.82,58.5H414.18s28.17,94,11.63,166.26c0,0-105.84-8-165.85,0,0,0-28-115.25,27.4-166.26H238.91S248.61,140.36,306.2,120.35Z"/></clipPath></defs><title>FAQ</title><path class="cls-2" d="M453.94,379.41A277.85,277.85,0,0,1,426,395.5q-2.76,1.38-5.53,2.7t-5.41,2.49A274.23,274.23,0,0,1,382,413a282.61,282.61,0,0,1-37,8.43,309.85,309.85,0,0,1-69.7,2.94q-2.9-.2-5.8-.45-4.23-.36-8.44-.83a357.12,357.12,0,0,1-41.18-7.05A390.91,390.91,0,0,1,109.26,371.6,344,344,0,0,1,63.16,339C37.29,317.15,18,293.45,8.12,270.8q-.48-1.09-.93-2.18a86.53,86.53,0,0,1-6.08-22.21q-.39-3.1-.49-6.15C0,221,8.28,203.76,27.52,190.75A84.79,84.79,0,0,1,61,177.46c5.79-1,14-2.62,23.91-5.31h0l3.55-1,2.33-.68.7-.21a270.33,270.33,0,0,0,32.67-12.11l1.2-.54,2.36-1.08C153.63,144.48,182,126,205.24,98q2.29-2.76,4.51-5.64,1.72-2.23,3.39-4.54.75-1,1.5-2.09t1.66-2.39q1.27-1.86,2.51-3.76.87-1.34,1.73-2.7l1-1.69q1.58-2.57,3.25-5c59.57-86.26,205.41-30.81,260,21.8C531.86,137.25,627.46,265.55,453.94,379.41Z"/><g id="question_list" data-name="question list"><path class="cls-3" d="M454.8,89.66l-30.11-7.33a4.25,4.25,0,0,0-5.14,3.13l-3.73,15.35a4.25,4.25,0,0,0,3.13,5.14l7.92,1.93a4.25,4.25,0,0,1,2.31,1.47l3.32,4.13a.91.91,0,0,0,1.08.26l4.84-2.15a4.25,4.25,0,0,1,2.73-.24l7.92,1.93a4.25,4.25,0,0,0,5.14-3.13l3.73-15.35A4.25,4.25,0,0,0,454.8,89.66Zm-20.8,20h0Z"/><rect class="cls-4" x="423.64" y="90.12" width="30.57" height="1.51" transform="translate(33.92 -101.17) rotate(13.67)"/><rect class="cls-4" x="422.82" y="93.49" width="30.57" height="1.51" transform="translate(34.69 -100.88) rotate(13.67)"/><rect class="cls-4" x="422" y="96.85" width="30.57" height="1.51" transform="translate(35.46 -100.59) rotate(13.67)"/><rect class="cls-4" x="421.18" y="100.22" width="30.57" height="1.51" transform="translate(36.24 -100.3) rotate(13.67)"/><rect class="cls-4" x="420.49" y="102.52" width="21.5" height="1.51" transform="translate(36.63 -99) rotate(13.67)"/></g><g id="boy"><g id="body"><path class="cls-5" d="M306.2,120.35s48.88,17.78,84.63,0c0,0,48.33,12.31,69.82,58.5H414.18s28.17,94,11.63,166.26c0,0-105.84-8-165.85,0,0,0-28-115.25,27.4-166.26H238.91S248.61,140.36,306.2,120.35Z"/><path class="cls-6" d="M287.36,178.84a44.1,44.1,0,0,1,8.3-15.29l-2.14,15.29Z"/><path class="cls-6" d="M414.14,178.84a44.1,44.1,0,0,0-8.3-15.29L408,178.84Z"/><g class="cls-7"><rect class="cls-3" x="234.65" y="196.24" width="0.58" height="336.09" transform="translate(-198.43 354.42) rotate(-55.88)"/><rect class="cls-3" x="249.79" y="173.89" width="0.58" height="336.09" transform="translate(-173.27 357.14) rotate(-55.88)"/><rect class="cls-3" x="264.94" y="151.54" width="0.58" height="336.09" transform="translate(-148.12 359.87) rotate(-55.88)"/><rect class="cls-3" x="280.09" y="129.18" width="0.58" height="336.09" transform="translate(-122.96 362.6) rotate(-55.88)"/><rect class="cls-3" x="295.24" y="106.83" width="0.58" height="336.09" transform="translate(-97.81 365.32) rotate(-55.88)"/><rect class="cls-3" x="310.39" y="84.47" width="0.58" height="336.09" transform="translate(-72.65 368.05) rotate(-55.88)"/><rect class="cls-3" x="325.53" y="62.12" width="0.58" height="336.09" transform="translate(-47.49 370.78) rotate(-55.88)"/><rect class="cls-3" x="340.68" y="39.77" width="0.58" height="336.09" transform="translate(-22.34 373.5) rotate(-55.88)"/><rect class="cls-3" x="355.83" y="17.41" width="0.58" height="336.09" transform="matrix(0.56, -0.83, 0.83, 0.56, 2.82, 376.23)"/><rect class="cls-3" x="370.98" y="-4.94" width="0.58" height="336.09" transform="translate(27.97 378.95) rotate(-55.88)"/><rect class="cls-3" x="386.13" y="-27.3" width="0.58" height="336.09" transform="translate(53.13 381.68) rotate(-55.88)"/><rect class="cls-3" x="401.28" y="-49.65" width="0.58" height="336.09" transform="translate(78.28 384.41) rotate(-55.88)"/><rect class="cls-3" x="416.42" y="-72" width="0.58" height="336.09" transform="translate(103.44 387.13) rotate(-55.88)"/><rect class="cls-3" x="291.9" y="320.76" width="336.09" height="0.58" transform="translate(-63.83 521.78) rotate(-55.88)"/><rect class="cls-3" x="269.55" y="305.62" width="336.09" height="0.58" transform="translate(-61.1 496.62) rotate(-55.88)"/><rect class="cls-3" x="247.19" y="290.47" width="336.09" height="0.58" transform="translate(-58.38 471.46) rotate(-55.88)"/><rect class="cls-3" x="224.84" y="275.32" width="336.09" height="0.58" transform="translate(-55.65 446.3) rotate(-55.88)"/><rect class="cls-3" x="202.49" y="260.17" width="336.09" height="0.58" transform="translate(-52.91 421.18) rotate(-55.89)"/><rect class="cls-3" x="180.13" y="245.02" width="336.09" height="0.58" transform="translate(-50.19 396.02) rotate(-55.89)"/><rect class="cls-3" x="157.78" y="229.87" width="336.09" height="0.58" transform="translate(-47.46 370.86) rotate(-55.89)"/><rect class="cls-3" x="135.43" y="214.73" width="336.09" height="0.58" transform="translate(-44.74 345.69) rotate(-55.89)"/><rect class="cls-3" x="113.07" y="199.58" width="336.09" height="0.58" transform="translate(-42.02 320.53) rotate(-55.89)"/><rect class="cls-3" x="90.72" y="184.43" width="336.09" height="0.58" transform="translate(-39.29 295.37) rotate(-55.89)"/><rect class="cls-3" x="68.36" y="169.28" width="336.09" height="0.58" transform="translate(-36.57 270.21) rotate(-55.89)"/><rect class="cls-3" x="46.01" y="154.13" width="336.09" height="0.58" transform="translate(-33.84 245.05) rotate(-55.89)"/><rect class="cls-3" x="23.66" y="138.99" width="336.09" height="0.58" transform="translate(-31.12 219.89) rotate(-55.89)"/></g></g><g id="paint"><path class="cls-8" d="M426,395.5A274.1,274.1,0,0,1,382,413c-40,12-81.18,14.5-121,10.1-7.76-25-1-78-1-78,58.28-8.41,165.85,0,165.85,0C428.82,360.77,427.69,380.6,426,395.5Z"/><path class="cls-9" d="M344.94,418.9a.73.73,0,0,1-.73-.73V400.69a.73.73,0,0,1,1.46,0v17.49A.73.73,0,0,1,344.94,418.9Z"/><path class="cls-9" d="M278.29,370.88a.82.82,0,0,1-.6-1.38l18.15-19.3a.82.82,0,1,1,1.2,1.12l-18.15,19.3A.82.82,0,0,1,278.29,370.88Z"/><path class="cls-9" d="M405.83,370.3a.82.82,0,0,1-.56-.22L386,351.93a.82.82,0,1,1,1.12-1.2l19.3,18.15a.82.82,0,0,1-.56,1.42Z"/><path class="cls-3" d="M275.24,424.38q-2.9-.2-5.8-.45c-6.75-16.12-7.64-35.75-7.34-46.69.35-12.86,3.65-32,3.72-32.34l5.21-.6c-.14.61-1.84,18.45-3,30.65C267.11,385.42,269.42,407.9,275.24,424.38Z"/><path class="cls-3" d="M420.49,398.2q-2.7,1.28-5.41,2.49a159.64,159.64,0,0,0,2.26-30.33,124.51,124.51,0,0,0-3.8-25.46l5.21.61a144.28,144.28,0,0,1,3,24.63A182,182,0,0,1,420.49,398.2Z"/></g><g id="neck"><path class="cls-10" d="M338.91,98.75s-10.08,19.08-32.71,21.6c0,0,40.5,19.57,84.63,0,0,0-26.38.32-31.43-21.6Z"/><path class="cls-11" d="M360,100.89s-1,5.34-5,7.88-4.56-.68-8.28,3-6.32-1.34-8.23,0a3.42,3.42,0,0,1-3.32.69,2.93,2.93,0,0,1-1.68-3.65,27.37,27.37,0,0,1,2.91-6.22C340.5,96.21,360,100.89,360,100.89Z"/></g><g id="face"><path class="cls-10" d="M375.67,77.14c-2.15-4.44-5.07,0-5.09,0a59.24,59.24,0,0,0,.37-8.79c-.66-20.74-20.12-25.11-20.12-25.11s-24.9-4.06-25.57,25.41a65,65,0,0,0,.13,7.17s-3.7-2.25-4.21,2.63,3.28,7.35,4.95,8.74c2.21,7.78,7.88,16.39,16.39,18.15C355.3,108,365.09,98.93,369.25,87,369.25,87,377.51,81,375.67,77.14Z"/><path class="cls-11" d="M347.9,85.37s.21,3.26-.78,4.29,2,.3,2,.3"/><path class="cls-11" d="M342.81,97.47a19.55,19.55,0,0,0,2.67,1,11.37,11.37,0,0,0,2.68.43,9.41,9.41,0,0,0,1.34-.06,9.92,9.92,0,0,0,1.33-.26,14.05,14.05,0,0,0,2.6-1.08,6.29,6.29,0,0,1-2.33,1.83,6.86,6.86,0,0,1-1.45.47,7.19,7.19,0,0,1-1.52.12,7.68,7.68,0,0,1-2.93-.7A7.14,7.14,0,0,1,342.81,97.47Z"/></g><g id="hat"><path class="cls-8" d="M322.76,76.17l2.8-4.84S347.28,46.2,373.94,75c0,0-.48,6.33-6.26,3.65s-20-17.23-39.92.74C327.76,79.35,322.59,83.45,322.76,76.17Z"/><path class="cls-12" d="M373.94,75s-27.45-30.81-51.18,1.21c0,0-3.94-17.33,4.33-30.18,3.52-5.47,10.87-7.33,18.16-7.66a75.33,75.33,0,0,1,14.87,1,15.51,15.51,0,0,1,10,6.08,25,25,0,0,1,3.92,8.05C376.73,62.82,373.94,75,373.94,75Z"/><path class="cls-13" d="M347.32,38.32s-9.65,8.59-8.2,24.66a27.15,27.15,0,0,1,16.27,0S356.77,48,347.32,38.32Z"/></g></g><g id="FAQ"><rect class="cls-3" x="193.83" y="178.84" width="308.47" height="142.17" rx="71.08" ry="71.08"/><path class="cls-9" d="M239.6,210h60v14.79H257.07v19.36h37.29v14.62H257.07v35.29H239.6Z"/><path class="cls-9" d="M328.7,209.9h19.9l29.78,84.16H359.31l-5.55-17.3h-31l-5.71,17.3h-18.4Zm-1.16,52.36H349.1l-10.63-33.12Z"/><path class="cls-9" d="M463.88,269.46a31.35,31.35,0,0,1-6.54,12l9.66,9.1-9.17,9.57-10.11-9.59a42.41,42.41,0,0,1-8,4,42.94,42.94,0,0,1-13.54,1.89q-16.46,0-27.2-9.82-13-11.82-13-34.72,0-23.07,13.36-34.89,10.91-9.65,27.12-9.65t27.41,10.22q12.79,11.82,12.79,33.06Q466.63,261.87,463.88,269.46ZM432,280.76a28.91,28.91,0,0,0,3.94-1.43l-8.52-8.1,9-9.43,8.55,8.06a39.78,39.78,0,0,0,2.8-7.19A41.41,41.41,0,0,0,449,251.87q0-14.16-5.8-21.89t-16.93-7.74q-10.45,0-16.67,7.42t-6.22,22.21q0,17.3,8.91,24.78a20.77,20.77,0,0,0,13.82,4.85A22.58,22.58,0,0,0,432,280.76Z"/><path id="hand" class="cls-10" d="M502.24,227.74s2.55-2,3.08,2.13c.18,1.36,0,2.4.62,3.28a4.08,4.08,0,0,1,.32,3.25c-.58,1.33.64,2.79.65,3.48a8.31,8.31,0,0,1-.69,2.85c-1.06,2-.1,2.69-1.49,3.84-2.11,1.73-8.24.28-8.23-2.24,0-1.61,5.11-1.36,5.11-1.36s-8.89.19-8.85-3.3c0-1.63,8.61-1.41,8.61-1.41s-13-.85-12-3,11.85-1.63,11.85-1.63-7.71-.69-7.78-2.8C493.42,230,502.24,227.74,502.24,227.74Z"/><path id="hand-2" data-name="hand" class="cls-10" d="M196.22,227.74s-2.64-1.4-3.17,2.7a4,4,0,0,1-1,2.48,4.54,4.54,0,0,0-.35,3.42c.58,1.33-.21,2.29-.21,3a10.91,10.91,0,0,0,.5,3c1.09,2.68-.26,2.11,1.7,4.27s8.24.28,8.23-2.24c0-1.61-5.11-1.36-5.11-1.36s8.89.19,8.85-3.3c0-1.63-8.61-1.41-8.61-1.41s13-.85,12-3-11.85-1.63-11.85-1.63,7.71-.69,7.78-2.8C205,230,196.22,227.74,196.22,227.74Z"/></g><g id="light"><path class="cls-12" d="M500.75,206.09l-.13,0-10.94-4.27.27-.68,7.06,2.76-7.3-4.44a.36.36,0,0,1,.3-.66l8.19,2.6-5.52-3a.36.36,0,0,1,.27-.67l5.3,1.42-7.07-3.35a.36.36,0,0,1,.24-.68l5.93,1.46-2.84-1.06,0,0a1.64,1.64,0,0,1-.42-2.63c2.35-2.33,3.5-4.56,3.42-6.62,0-1.18-.27-2.68-.52-4.41-.75-5.15-1.79-12.19,1.3-16.55a13.63,13.63,0,0,1,6.65-5.3,9.31,9.31,0,0,1,6.7.28c4.61,2,7.05,7.17,6,12.58s-6.2,9.94-9.91,13.21a29.51,29.51,0,0,0-3.54,3.43c-1.19,1.56-1.84,3.76-2.05,6.92l-.73,0c.22-3.31.92-5.63,2.2-7.31a29.78,29.78,0,0,1,3.64-3.53c3.64-3.21,8.62-7.6,9.68-12.81s-1.24-9.91-5.53-11.77c-5.13-2.22-9.8,1-12.47,4.77-2.92,4.12-1.91,11-1.17,16,.26,1.75.48,3.26.53,4.48.09,2.27-1.13,4.68-3.64,7.16a.91.91,0,0,0,.21,1.45l8.75,3.25a.36.36,0,0,1-.21.7l-8.57-2.11,7.46,3.53a.36.36,0,0,1-.25.68l-6.24-1.67,6.17,3.36a.36.36,0,0,1-.28.67l-8.93-2.84,8.26,5a.36.36,0,0,1-.19.68Z"/><path class="cls-12" d="M507.47,175.37a.5.5,0,0,1-.34-.13.54.54,0,0,1-.18-.32l0,0c-.26.22-.6.06-1.17-.23a1.75,1.75,0,0,1-1-1.22c-.35-1.62,1.4-3.87,1.47-4l.57.45c-.45.57-1.57,2.3-1.33,3.36a1,1,0,0,0,.58.72l.13.06a3.07,3.07,0,0,1,1.24-3.45c.44-.36.94-.72,1.31-.44s.16,1.07-.46,2.59a15,15,0,0,0-.61,1.68c.82-.48.88-.8.88-.89s-.22-.31-.22-.31l.36-.63a1.14,1.14,0,0,1,.59.94c0,.54-.43,1.05-1.31,1.56A1.09,1.09,0,0,1,507.47,175.37Zm.73-4.33-.29.22a2.37,2.37,0,0,0-.93,2.92l0,.11a14.67,14.67,0,0,1,.62-1.71C507.82,172.11,508.09,171.45,508.2,171Z"/></g><rect class="cls-12" x="512.1" y="156.83" width="2.23" height="0.73" transform="translate(177.58 576.07) rotate(-68.33)"/><rect class="cls-12" x="504.68" y="151.91" width="0.73" height="5.12" transform="translate(-19.93 96.7) rotate(-10.73)"/><rect class="cls-12" x="497.71" y="158.45" width="0.73" height="2.56" transform="translate(25.38 383.67) rotate(-43.13)"/><rect class="cls-12" x="492.51" y="162.92" width="0.73" height="5.12" transform="translate(209.53 601.4) rotate(-75.54)"/><rect class="cls-12" x="517.55" y="160.22" width="5.12" height="0.73" transform="matrix(0.8, -0.6, 0.6, 0.8, 8.62, 346.8)"/><rect class="cls-12" x="520.56" y="167.69" width="2.56" height="0.73" transform="translate(-14.69 55.37) rotate(-5.99)"/><rect class="cls-12" x="521.51" y="173.2" width="0.73" height="5.12" transform="translate(140.77 573.25) rotate(-64.82)"/><path class="cls-12" d="M201.79,372.11a2.92,2.92,0,0,1-2.18-1,29.58,29.58,0,0,1-3.74-5.5c-2.36-4.51-2.93-8.79-1.63-12.37,4.12-11.39-1-15.26-2.62-16.53-2.18-1.66-5.93-1.54-8.52.29-2.9,2-3.71,5.61-2.3,10.06a2.93,2.93,0,0,1-5.58,1.77c-2.18-6.88-.49-13.09,4.51-16.62,4.72-3.32,11.21-3.39,15.44-.16a15.9,15.9,0,0,1,5.84,8.37c1.2,4.19.78,9.17-1.26,14.81-1.52,4.22,2.53,10.07,4.22,12a2.93,2.93,0,0,1-2.19,4.88Z"/><circle class="cls-12" cx="208.17" cy="377.23" r="3.68" transform="translate(-140.51 124.12) rotate(-25.13)"/><path class="cls-14" d="M281.46,76.79A2.56,2.56,0,0,1,280.25,74c.1-.44,2.62-10.78,10.16-12.79C300.65,58.45,300.9,52.87,301,51c.1-2.4-1.86-5-4.47-6-2.91-1.06-5.89.14-8.38,3.37a2.56,2.56,0,0,1-4.06-3.13c3.85-5,9.16-6.9,14.2-5.06,4.74,1.73,8,6.36,7.84,11-.4,9.23-8,13.19-14.37,14.88-2.27.61-3.89,2.93-4.85,4.78a21,21,0,0,0-1.64,4.24,2.57,2.57,0,0,1-3.78,1.63Z"/><circle class="cls-14" cx="280.15" cy="83.18" r="3.22" transform="translate(67.92 284.07) rotate(-59.97)"/><path class="cls-15" d="M120.53,78.25l-1.24,2.47a62.33,62.33,0,0,0-4,37.81L97.09,106.62l3.58-7.24-9-15.83,12.73-11,.08-.07,2.63-2.26,5.57,3.32Z"/><path class="cls-16" d="M120.53,78.25l-1.24,2.47a62.33,62.33,0,0,0-4,37.81c-7.53-9.22-3.24-14.64-6.45-26.08s-1.37-13.1-1.37-13.1l5.22-5.79Z"/><rect class="cls-17" x="174.2" y="69.7" width="93.42" height="31.34" rx="15.67" ry="15.67" transform="translate(23.32 -45.2) rotate(12.33)"/><text class="cls-18" transform="matrix(0.98, 0.22, -0.22, 0.98, 183.75, 82.49)">#<tspan class="cls-19" x="7.24" y="0">Q</tspan><tspan x="17.33" y="0">uestion</tspan></text><rect class="cls-17" x="215.44" y="99.06" width="2.49" height="33.13" transform="translate(29.69 -43.6) rotate(12.33)"/><path class="cls-9" d="M125.19,279.78h0c-.14.18-6,8.17-3.06,32.33,1.89,15.36-5,41.32-10.35,58.49l-2.52,1A344,344,0,0,1,63.16,339C37.29,317.15,18,293.45,8.12,270.8q-.48-1.09-.93-2.18l83.75,7.92Z"/><path class="cls-17" d="M63.16,339c-.27-2.37-.44-4.74-.6-7.11s-.29-4.73-.4-7.09l-.32-7.07c-.06-1.17-.1-2.35-.18-3.51l-.06-.87,0-.43,0-.42c0-.13,0-.29,0-.41l0-.37-.14-.93a16.09,16.09,0,0,1,0-3.89,13.39,13.39,0,0,1,1.08-3.78,25.18,25.18,0,0,1,1.82-3.26c.33-.51.65-1,1-1.5l.25-.37.12-.18.06-.09,0-.07.17-.27.13-.3a4.92,4.92,0,0,0,.31-1.39,9.22,9.22,0,0,0-.06-1.57,13.62,13.62,0,0,0-.32-1.63c-.06-.27-.15-.55-.22-.82s-.17-.55-.27-.82a43.15,43.15,0,0,0-2.91-6.41,25.46,25.46,0,0,1,2.3,2.76,25.17,25.17,0,0,1,1.93,3.08,16.07,16.07,0,0,1,1.37,3.47,9.93,9.93,0,0,1,.29,2,6.67,6.67,0,0,1-.25,2.1c-.06.18-.12.35-.18.53l-.25.51-.06.12-.05.1-.11.19-.22.39c-.29.51-.58,1-.86,1.53a27.44,27.44,0,0,0-1.48,3,11.08,11.08,0,0,0-.76,3,13.53,13.53,0,0,0,.06,3.19l.11.82.06.51c0,.17,0,.32,0,.48l0,.47,0,.46c0,.3,0,.61,0,.91,0,1.2.06,2.39.07,3.59s0,2.38,0,3.57l0,1.78-.07,1.78A138.92,138.92,0,0,1,63.16,339Z"/><path class="cls-15" d="M211.76,120.68c-7.64,3.06-9.15,13.12-9.15,13.12a28,28,0,0,1-5.43,9.21c-13.85,13.29-26.38,21.25-36.64,26-27.61,10-36.2-13.51-36.2-13.51L121.91,185l9.93-.21a116.49,116.49,0,0,0,3.45,20.74c1.52,6.19,3,10.72,3,10.72,22.27-11.65,42.78-35.11,56-51.12h0c4.52-5.49,8.18-10.11,10.74-13.07L213.35,141a7.41,7.41,0,0,0,9.38-4c3.83-7.45-1.7-10.5-1.7-10.5s.12-5.21-3.49-5.58h0S214.42,118.14,211.76,120.68Z"/><path class="cls-16" d="M194.2,165.09c-13.17,16-33.69,39.47-56,51.12,0,0-1.44-4.53-3-10.72,3.89-.06,11.48-.86,16.61-5.74,7.15-6.8,16.24-8.59,20.33-16.16S193.92,165.25,194.2,165.09Z"/><path class="cls-12" d="M138.56,234.85l-.85,9.92-.67,1.88-11.29,31.56-.56,1.56h0l-.93.43q-1.87.84-3.75,1.6l-1.66.66-.44.17q-1.29.49-2.58.94-2.8,1-5.6,1.8a108.18,108.18,0,0,1-10.77,2.54,117.11,117.11,0,0,1-28.2,1.61q-3-.18-6-.5c-26.74-2.86-48.37-13.36-57.19-18.22q-.48-1.09-.93-2.18a86.53,86.53,0,0,1-6.08-22.21q-.28-3.11-.49-6.15C-8.07,112.8,77.31,90.67,77.31,90.67h0L97.6,105.57l17.66,13h0c5.09,13.71,9.17,26.36,12.42,38q1,3.63,1.92,7.13a297.1,297.1,0,0,1,7.89,41.7q.62,5.62.92,10.74h0A171.93,171.93,0,0,1,138.56,234.85Z"/><path class="cls-20" d="M138.56,234.85l-.85,9.92-12.52,35h0a106.72,106.72,0,0,1-14.95,5.59,107.9,107.9,0,0,1-10.77,2.54c-4.94-5.78-11-13.9-13.12-20.83-3.71-12.34-10-23.67-15.68-35.22S62,204.72,62,204.72L87,194.67s4.45-22.81-1.48-37.23c0,0,10.43,24.6,18.08,32.87s10.16,18.57,15.07,23.85C122.56,218.32,133.94,230.09,138.56,234.85Z"/><path class="cls-17" d="M92.63,82.63a74.21,74.21,0,0,1-15.32,8s14.87,30.92,33.4,38.53c0,0-1.9-7,4.54-10.66C115.26,118.54,101.08,100.74,92.63,82.63Z"/><path id="hair" class="cls-9" d="M132.41,46.55s20.14-28.07-7-25.4C101,23.54,103.48,37.84,103.48,37.84A4.47,4.47,0,0,0,98.19,41s-5.78,3.55-4,12.31,3.16,2.76,7.15,17.13Z"/><path class="cls-15" d="M191.34,289.36c-23.42,1.12-26.21.61-26.21.61-21.5-2-32.47-7.67-46.73-15.87l-.73-.42h0q-1.47-.86-2.9-1.75C73.87,246.44,62,204.72,62,204.72a54,54,0,0,0,9.84-7.77c17.29-17.39,13.74-39.52,13.74-39.52,24.87,65.58,57.12,97.71,74.85,111.39h0s18.08,14.38,30.69,7l2.77-8v7.19s15.3-2,10.65.45l-4.65,2.46s9.91-2.46,10.28.09-11,2.73-11,2.73,10.46-.64,10,1.46-11,2.37-11,2.37,8.57,1.18,6.38,3.09-7.19,1.18-7.19,1.18Z"/><path class="cls-16" d="M93.82,244.86c9.51,9.3,11.72,20.57,20.94,27.07C73.87,246.44,62,204.72,62,204.72a54,54,0,0,0,9.84-7.77s-.56,13.4,7.69,23.32S83.38,234.65,93.82,244.86Z"/><path class="cls-16" d="M118.4,274.11l-.73-.42A7.55,7.55,0,0,1,118.4,274.11Z"/><g id="face-2" data-name="face"><path class="cls-15" d="M132.41,46.55s11.39,36.76-14,36.79h0c-2.3.43-5.13-.12-8.64-2.31-7.07-4.4-10-12.54-9.84-19.14h0a18.19,18.19,0,0,1,.56-4.18A12.05,12.05,0,0,1,101.51,55a7.47,7.47,0,0,1,1.58-2c1.56-1.37,3.65-1.75,6.14-.59h0v-.08c-.17-.84-1.55-8.45,4.19-6.78,6.06,1.76,13.92-4.45,19,1Z"/><path class="cls-16" d="M132.38,46.52c-.31-.3-3.06-2.66-12-.33-4.73,1.22-8.32-1.31-9.45.11s-1.73,1.65-1.66,6v-.08c-.17-.84-1.55-8.45,4.19-6.78C119.47,47.25,127.33,41,132.38,46.52Z"/><path class="cls-16" d="M109.24,52.34c-.19-.06-6.72-2-9.35,9.54a18.19,18.19,0,0,1,.56-4.18A12.05,12.05,0,0,1,101.51,55a7.47,7.47,0,0,1,1.58-2C104.65,51.55,106.74,51.18,109.24,52.34Z"/></g><g id="light-2" data-name="light"><path class="cls-5" d="M235.83,237.38a.36.36,0,0,1-.08-.72l6.72-1.59-7.79.45a.36.36,0,0,1-.13-.71l7.53-2.3-5.67.6a.36.36,0,0,1-.16-.71l4.65-1.66-7,1.15a.36.36,0,0,1-.19-.7l5-1.91-2.41.61h0a1.57,1.57,0,0,1-1.75-1.84c.58-3.06.28-5.4-.88-6.95-.67-.89-1.64-1.93-2.76-3.14-3.34-3.59-7.92-8.5-7.85-13.54a12.86,12.86,0,0,1,2.33-7.68,8.79,8.79,0,0,1,5.36-3.38c4.65-.92,9.32,1.78,11.38,6.58s.52,11-.61,15.56a27.79,27.79,0,0,0-.91,4.55c-.08,1.84.59,3.89,2.11,6.45a.36.36,0,0,1-.63.37c-1.6-2.69-2.3-4.87-2.21-6.86a28.05,28.05,0,0,1,.93-4.69c1.1-4.43,2.62-10.5.65-15.1s-6.26-7-10.56-6.15c-5.15,1-7,6-7.1,10.35-.06,4.74,4.4,9.54,7.66,13,1.14,1.22,2.12,2.27,2.81,3.2,1.29,1.72,1.63,4.25,1,7.52a.84.84,0,0,0,.92,1l8.52-2.16a.36.36,0,0,1,.22.69l-7.58,2.88,7.46-1.22a.36.36,0,0,1,.18.7l-5.56,2,6.41-.68a.36.36,0,0,1,.14.71l-8.27,2.52,8.92-.51a.36.36,0,0,1,.1.72l-10.76,2.54Z"/><path class="cls-5" d="M233.61,207.81a1.63,1.63,0,0,1-1.15-.45c-1.15-1.07-1-3.77-1-3.88a.36.36,0,0,1,.73,0c0,.68,0,2.61.76,3.31a1,1,0,0,0,.82.24h.09a2.91,2.91,0,0,1-.85-3.33c.15-.51.34-1.06.79-1.06h0c.51,0,.69.65,1,2.07a.36.36,0,0,1,.26-.15,1.1,1.1,0,0,1,1,.42c.3.43.24,1.06-.18,1.93-.18.37-.4.54-.67.51a.52.52,0,0,1-.29-.13v0c-.09.34-.49.39-1,.46Zm.19-4.15c0,.07-.06.16-.09.27a2.22,2.22,0,0,0,.83,2.74l0,0a15.2,15.2,0,0,1-.41-1.59C234.07,204.65,233.93,204,233.81,203.66Zm1.14,1.61a11.94,11.94,0,0,0,.33,1.25c.35-.77.23-1,.19-1.09s-.31-.11-.31-.11A.36.36,0,0,1,235,205.27Z"/></g><path class="cls-5" d="M230.52,191.57a.36.36,0,0,1-.35-.28l-.47-2a.36.36,0,0,1,.71-.16l.47,2a.36.36,0,0,1-.27.44Z"/><path class="cls-5" d="M224.21,194.5a.36.36,0,0,1-.26-.11L220.53,191a.36.36,0,0,1,.51-.52l3.43,3.39a.36.36,0,0,1-.26.62Z"/><path class="cls-5" d="M221.08,200.86H221l-2.36-.51a.36.36,0,1,1,.15-.71l2.36.51a.36.36,0,0,1-.08.72Z"/><path class="cls-5" d="M216.68,208.68a.36.36,0,0,1-.13-.71l4.53-1.66a.36.36,0,0,1,.25.68l-4.53,1.66Z"/><path class="cls-5" d="M236.69,191.77l-.11,0a.36.36,0,0,1-.23-.46l1.51-4.58a.36.36,0,0,1,.69.23L237,191.52A.36.36,0,0,1,236.69,191.77Z"/><path class="cls-5" d="M241.87,195.13a.36.36,0,0,1-.24-.64l1.83-1.57a.36.36,0,0,1,.47.55L242.11,195A.36.36,0,0,1,241.87,195.13Z"/><path class="cls-5" d="M244.55,200.69a.36.36,0,0,1-.06-.72l4.76-.79a.36.36,0,1,1,.12.72l-4.76.79Z"/></svg>