<svg id="Layer_1" data-name="Layer 1" xmlns="http://www.w3.org/2000/svg" xmlns:xlink="http://www.w3.org/1999/xlink" width="21.09cm" height="13.3cm" viewBox="0 0 597.93 377.06"><defs><style>.cls-1{fill:none;}.cls-2{fill:#7b63ff;}.cls-13,.cls-3{fill:#fff;}.cls-4{fill:#06015f;}.cls-5{fill:#271bbf;}.cls-6{fill:#00ccbe;}.cls-7{clip-path:url(#clip-path);}.cls-8{fill:#04a898;}.cls-9{fill:#f1f0fe;}.cls-10{fill:#f2b5bc;}.cls-11{fill:#f48d8c;}.cls-12{fill:#4d3eda;}.cls-13{font-size:9.05px;font-family:BeVietnam-Medium, BeVietnam Medium;}.cls-14{letter-spacing:0em;}.cls-15{letter-spacing:0em;}.cls-16{fill:#ff7373;}.cls-17{fill:#1e1e77;}.cls-18{clip-path:url(#clip-path-2);}.cls-19{opacity:0.5;}.cls-20{fill:#a4a4fc;}.cls-21{fill:#3229d6;}.cls-22{fill:#ffd974;}.cls-23{fill:#eabe06;}.cls-24{fill:#1a127a;}.cls-25{fill:#28025e;}.cls-26{fill:#ff4c8b;}.cls-27{fill:#f6577e;}</style><clipPath id="clip-path"><path class="cls-1" d="M240.9,234.43l-20.52-4.5s1.62,35.56,2,60c.16,9.19.14,16.81-.19,20.37-.37,4-12.66,6.66-29.74,8.07-39,3.22-102.82-.24-106.93-10.5,0,0-3-41.75,1-71.53,0,0-18.89-15-25.51-35.3,0,0,20.69-39.84,52.48-44.05,19.92-3.21,19.42-3.84,19.42-3.84s22.6,24.48,43.08,0a99.92,99.92,0,0,0,29,11.11C221.13,167.53,242.58,187.82,240.9,234.43Z"/></clipPath><clipPath id="clip-path-2"><path class="cls-1" d="M429,159.38s20.42,18.23,46.37.15c0,0,53.27,3.29,62.23,52.46l-11.18,57.55s7.1,10,4.21,48.72c0,0-65.07,8.23-82.57,4S388.53,318,388.53,318s-17.4-79.89-9.84-114.85S411.29,162.8,429,159.38Z"/></clipPath></defs><title>FAQ</title><path id="background" class="cls-2" d="M82.83,372.22s-92.43-84-62.74-212.88S170.22,20.83,221.2,35.74,350,92.12,459.28,14.25s205.25,180.58,78.08,358.17Z"/><rect class="cls-3" x="70.74" y="96.03" width="472.63" height="247" rx="57.47" ry="57.47"/><g id="boy_1" data-name="boy 1"><g id="paint"><path class="cls-4" d="M85.57,307.88s3.61,44.89,9.57,64.28h123s6.71-45.46,4.1-61.86Z"/><path class="cls-5" d="M187.58,322.28s4.78,11.64,24.77,12.24"/><path class="cls-5" d="M118.34,322.28s-6.27,14.33-22.08,15.82"/><path class="cls-5" d="M109.09,356.24a.53.53,0,0,1-.53-.53V332.43a.53.53,0,0,1,1.07,0v23.28A.53.53,0,0,1,109.09,356.24Z"/><path class="cls-5" d="M209.67,358.33a.53.53,0,0,1-.53-.53V334.52a.53.53,0,0,1,1.07,0V357.8A.53.53,0,0,1,209.67,358.33Z"/><path class="cls-5" d="M156.25,372.11a.45.45,0,0,1-.45-.45V354.95a.45.45,0,1,1,.9,0v16.71A.45.45,0,0,1,156.25,372.11Z"/></g><path class="cls-6" d="M240.9,234.43l-20.52-4.5s1.62,35.56,2,60c.16,9.19.14,16.81-.19,20.37-.37,4-12.66,6.66-29.74,8.07-39,3.22-102.82-.24-106.93-10.5,0,0-3-41.75,1-71.53,0,0-18.89-15-25.51-35.3,0,0,20.69-39.84,52.48-44.05,19.92-3.21,19.42-3.84,19.42-3.84s22.6,24.48,43.08,0a99.92,99.92,0,0,0,29,11.11C221.13,167.53,242.58,187.82,240.9,234.43Z"/><g class="cls-7"><rect class="cls-3" x="-33.71" y="160.11" width="243.51" height="0.46" transform="translate(-86.48 105.53) rotate(-43.79)"/><rect class="cls-3" x="-21.12" y="173.25" width="243.51" height="0.46" transform="translate(-92.06 117.91) rotate(-43.79)"/><rect class="cls-3" x="-8.52" y="186.39" width="243.51" height="0.46" transform="translate(-97.65 130.28) rotate(-43.79)"/><rect class="cls-3" x="4.08" y="199.53" width="243.51" height="0.46" transform="translate(-103.24 142.65) rotate(-43.79)"/><rect class="cls-3" x="16.67" y="212.66" width="243.51" height="0.46" transform="translate(-108.83 155.02) rotate(-43.79)"/><rect class="cls-3" x="29.27" y="225.8" width="243.51" height="0.46" transform="translate(-114.42 167.39) rotate(-43.79)"/><rect class="cls-3" x="41.87" y="238.94" width="243.51" height="0.46" transform="translate(-120.01 179.77) rotate(-43.79)"/><rect class="cls-3" x="54.46" y="252.08" width="243.51" height="0.46" transform="translate(-125.59 192.14) rotate(-43.79)"/><rect class="cls-3" x="67.06" y="265.21" width="243.51" height="0.46" transform="translate(-131.18 204.51) rotate(-43.79)"/><rect class="cls-3" x="79.66" y="278.35" width="243.51" height="0.46" transform="translate(-136.77 216.88) rotate(-43.79)"/><rect class="cls-3" x="92.25" y="291.49" width="243.51" height="0.46" transform="translate(-142.36 229.25) rotate(-43.79)"/><rect class="cls-3" x="216.49" y="41.29" width="0.46" height="243.51" transform="translate(-52.56 195.34) rotate(-43.79)"/><rect class="cls-3" x="203.35" y="53.89" width="0.46" height="243.51" transform="translate(-64.93 189.75) rotate(-43.79)"/><rect class="cls-3" x="190.21" y="66.48" width="0.46" height="243.51" transform="translate(-77.3 184.16) rotate(-43.79)"/><rect class="cls-3" x="177.07" y="79.08" width="0.46" height="243.51" transform="translate(-89.67 178.57) rotate(-43.79)"/><rect class="cls-3" x="163.94" y="91.68" width="0.46" height="243.51" transform="translate(-102.05 172.99) rotate(-43.79)"/><rect class="cls-3" x="150.8" y="104.27" width="0.46" height="243.51" transform="translate(-114.42 167.4) rotate(-43.79)"/><rect class="cls-3" x="137.66" y="116.87" width="0.46" height="243.51" transform="translate(-126.79 161.81) rotate(-43.79)"/><rect class="cls-3" x="124.52" y="129.47" width="0.46" height="243.51" transform="translate(-139.16 156.22) rotate(-43.79)"/><rect class="cls-3" x="111.38" y="142.06" width="0.46" height="243.51" transform="translate(-151.53 150.63) rotate(-43.79)"/><rect class="cls-3" x="98.25" y="154.66" width="0.46" height="243.51" transform="translate(-163.91 145.04) rotate(-43.79)"/><rect class="cls-3" x="85.11" y="167.25" width="0.46" height="243.51" transform="translate(-176.28 139.46) rotate(-43.79)"/></g><path class="cls-8" d="M92.78,240.89a44.78,44.78,0,0,0,11.48-14.71s-8.49,23.73-19.6,36.07l.9-19.39Z"/><path class="cls-8" d="M222.23,310.3c-.37,4-12.66,6.66-29.74,8.07L195,256.46V216.38l2.67,15.29,24.72,58.26C222.58,299.13,222.56,306.75,222.23,310.3Z"/><path class="cls-9" d="M148.63,225.38v12.89h20.51v8.24H148.63v23H138V216.16h33.86v9.23Z"/><g id="hand_right" data-name="hand right"><path class="cls-10" d="M197.7,231.67s12.12-10.2,43.2,2.76c0,0-6.16,56.18-39.81,97.79,0,0-7.13-1.63-10.16-7.14C190.93,325.09,204.07,274.68,197.7,231.67Z"/><path class="cls-11" d="M221.86,298.64s-3.12-17.15-3.86-22.26,1.84-11.9,2.92-19.47,3.55-23.13,5-27.47c5.33.36,15,5,15,5S235.53,272.86,221.86,298.64Z"/></g><rect class="cls-12" x="10.37" y="93.91" width="58.03" height="19.47" rx="6.25" ry="6.25" transform="translate(23.04 -6.02) rotate(12.33)"/><text class="cls-13" transform="translate(16.31 101.85) rotate(12.51)">#<tspan class="cls-14" x="4.5" y="0">Q</tspan><tspan class="cls-15" x="10.76" y="0">uestion</tspan></text><rect class="cls-12" x="35.99" y="112.14" width="1.55" height="20.58" transform="translate(26.99 -5.03) rotate(12.33)"/><g id="hand_left" data-name="hand left"><path class="cls-10" d="M38.75,145c.15,3.64,10,57,22.31,56.06,0,0,5.69,22.07,31.72,39.83h0c-.33.5-31.46,47.3-50.69,4.53a159.79,159.79,0,0,1-7.22-19.51v0q-1-3.18-1.79-6.36h0c-9.41-35.72-5.83-61.7-5.83-71.13,0,0-6-6.79-1.66-11.78s8.24-6.27,8.24-6.27,3.65-.95,3.24,2.7c0,0,3.11.34,1.35,4.39,0,0,2,1,.88,3.65Z"/><path class="cls-11" d="M92.78,240.89c-.33.5-31.46,47.3-50.69,4.53a159.79,159.79,0,0,1-7.22-19.51v0l-1.79-6.34C33.66,221.35,53.73,283,92.78,240.89Z"/></g><g id="head"><g id="neck"><path class="cls-10" d="M176,153.17c-21.22,24.56-43.08,0-43.08,0,12.71-5.64,13-20.79,13-20.79,5.69,7,11.32,9.65,18.48.8h0C164.93,149.5,176,153.17,176,153.17Z"/><path class="cls-11" d="M164.47,133.18c-7.16,8.85-12.8,6.2-18.48-.8C155.32,141.26,164.29,133.34,164.47,133.18Z"/></g><g id="face"><path class="cls-10" d="M176,110c-.3-1.87-4.48,1.8-4.48,1.8l-.08.42-7.33-11.09-20.69,2.12-2.83,8.64,0-.09s-4.18-3.66-4.48-1.8c-.6,3.68,2.69,6.78,4.57,8.21.58,4.23,2,10.12,5.27,14.17,9.33,8.87,18.3,1,18.48.8h0a35.41,35.41,0,0,0,6.74-14.78C173,117.07,176.67,113.86,176,110Z"/><path class="cls-11" d="M156.73,121.1s.11,3.87-1.5,5.26,2.89,0,2.89,0"/><path class="cls-11" d="M152.62,130.85a7.78,7.78,0,0,0,1.73,1.14,5.33,5.33,0,0,0,1,.35,3.88,3.88,0,0,0,1,.14,3.77,3.77,0,0,0,1-.11,4,4,0,0,0,.9-.38,5.76,5.76,0,0,0,1.5-1.31l.2.42c-.58,0-1.17,0-1.75,0l-1.77-.07-1.83-.09Zm0,0,1.72-.08,1.8-.09,1.86-.07c.62,0,1.25,0,1.88,0h.54l-.34.43a5.8,5.8,0,0,1-1.65,1.42,4.07,4.07,0,0,1-1,.39,3.82,3.82,0,0,1-1.11.08,4.67,4.67,0,0,1-2-.68A6.25,6.25,0,0,1,152.62,130.85Z"/></g><path class="cls-16" d="M176.7,104.77a70.33,70.33,0,0,1-5.19,11.81l-3.39-9.46c-23.59,7.15-25.27,0-25.27,0a16.74,16.74,0,0,1-1.64,7.67l-.52,1v0c-10.13-11-4.61-15.34-4.61-15.34a10.44,10.44,0,0,1-2.3-9.22c.72-3.46,8.17-.14,8.17-.14s2.11-13.61,25-10.56c8.59,1.14,11.5,6.26,11.74,12.3.46.68.92,1.46,1.39,2.34C182.11,98.85,179.75,102.22,176.7,104.77Z"/><path class="cls-11" d="M168.12,107.12c-11.49,6.35-23.77,3.32-24.31,3.39-.39,0-1.81,2.73-2.6,4.26a16.74,16.74,0,0,0,1.64-7.67S144.53,114.27,168.12,107.12Z"/></g></g><g id="girl"><g id="paint-2" data-name="paint"><path class="cls-17" d="M530.64,318.26s4.84,13.42-1.4,54.16H380.63s4.63-33-.87-56.27C379.75,316.15,488,321.27,530.64,318.26Z"/><path class="cls-5" d="M458.14,359.71s.47,5.39-3.8,12.7h8.53A39.44,39.44,0,0,0,458.14,359.71Z"/><path class="cls-5" d="M392.08,344.74a.46.46,0,0,1-.35-.75l14.6-17.18a.46.46,0,0,1,.7.59l-14.6,17.18A.46.46,0,0,1,392.08,344.74Z"/><path class="cls-5" d="M517.35,344.74a.46.46,0,0,1-.35-.16L502.4,327.4a.46.46,0,1,1,.7-.59L517.7,344a.46.46,0,0,1-.35.75Z"/><path class="cls-3" d="M522.06,371.48l-4.56.08.54-2.13A125,125,0,0,0,522,335.18a76.67,76.67,0,0,0-1.39-13.39l-.49-2.14,4.45-.28.33,1.43a78.86,78.86,0,0,1,1.5,14.1,129.35,129.35,0,0,1-4.06,35.61Z"/></g><g id="body"><path class="cls-12" d="M429,159.38s20.42,18.23,46.37.15c0,0,53.27,3.29,62.23,52.46l-11.18,57.55s7.1,10,4.21,48.72c0,0-65.07,8.23-82.57,4S388.53,318,388.53,318s-17.4-79.89-9.84-114.85S411.29,162.8,429,159.38Z"/><g class="cls-18"><g class="cls-19"><circle class="cls-20" cx="337.55" cy="233.2" r="5.18" transform="translate(-68.27 293.46) rotate(-43.08)"/><circle class="cls-20" cx="352.89" cy="249.6" r="5.18" transform="translate(-75.34 308.36) rotate(-43.08)"/><circle class="cls-20" cx="368.23" cy="266" r="5.18" transform="translate(-82.4 323.26) rotate(-43.08)"/><circle class="cls-20" cx="383.56" cy="282.4" r="5.18" transform="translate(-89.47 338.15) rotate(-43.08)"/><circle class="cls-20" cx="398.9" cy="298.8" r="5.18" transform="translate(-96.53 353.05) rotate(-43.08)"/><circle class="cls-20" cx="414.24" cy="315.19" r="5.18" transform="translate(-103.6 367.95) rotate(-43.08)"/><circle class="cls-20" cx="429.58" cy="331.59" r="5.18" transform="translate(-110.67 382.85) rotate(-43.08)"/><circle class="cls-20" cx="444.91" cy="347.99" r="5.18" transform="translate(-117.73 397.75) rotate(-43.08)"/><circle class="cls-20" cx="353.46" cy="218.32" r="5.18" transform="translate(-53.82 300.31) rotate(-43.08)"/><circle class="cls-20" cx="368.8" cy="234.72" r="5.18" transform="translate(-60.88 315.21) rotate(-43.08)"/><circle class="cls-20" cx="384.13" cy="251.12" r="5.18" transform="translate(-67.95 330.11) rotate(-43.08)"/><circle class="cls-20" cx="399.47" cy="267.52" r="5.18" transform="translate(-75.02 345.01) rotate(-43.08)"/><circle class="cls-20" cx="414.81" cy="283.92" r="5.18" transform="translate(-82.08 359.91) rotate(-43.08)"/><circle class="cls-20" cx="430.15" cy="300.32" r="5.18" transform="translate(-89.15 374.81) rotate(-43.08)"/><circle class="cls-20" cx="445.48" cy="316.71" r="5.18" transform="translate(-96.21 389.71) rotate(-43.08)"/><circle class="cls-20" cx="460.82" cy="333.11" r="5.18" transform="translate(-103.28 404.6) rotate(-43.08)"/><circle class="cls-20" cx="369.37" cy="203.44" r="5.18" transform="translate(-39.37 307.17) rotate(-43.08)"/><circle class="cls-20" cx="384.7" cy="219.84" r="5.18" transform="translate(-46.43 322.07) rotate(-43.08)"/><circle class="cls-20" cx="400.04" cy="236.24" r="5.18" transform="translate(-53.5 336.96) rotate(-43.08)"/><circle class="cls-20" cx="415.38" cy="252.64" r="5.18" transform="translate(-60.56 351.86) rotate(-43.08)"/><circle class="cls-20" cx="430.72" cy="269.04" r="5.18" transform="translate(-67.63 366.76) rotate(-43.08)"/><circle class="cls-20" cx="446.05" cy="285.44" r="5.18" transform="translate(-74.7 381.66) rotate(-43.08)"/><circle class="cls-20" cx="461.39" cy="301.84" r="5.18" transform="translate(-81.76 396.56) rotate(-43.08)"/><circle class="cls-20" cx="476.73" cy="318.23" r="5.18" transform="translate(-88.83 411.46) rotate(-43.08)"/><circle class="cls-20" cx="385.27" cy="188.56" r="5.18" transform="translate(-24.91 314.02) rotate(-43.08)"/><circle class="cls-20" cx="400.61" cy="204.96" r="5.18" transform="translate(-31.98 328.92) rotate(-43.08)"/><circle class="cls-20" cx="415.95" cy="221.36" r="5.18" transform="translate(-39.04 343.82) rotate(-43.08)"/><circle class="cls-20" cx="431.29" cy="237.76" r="5.18" transform="translate(-46.11 358.72) rotate(-43.08)"/><circle class="cls-20" cx="446.62" cy="254.16" r="5.18" transform="translate(-53.18 373.62) rotate(-43.08)"/><circle class="cls-20" cx="461.96" cy="270.56" r="5.18" transform="translate(-60.24 388.52) rotate(-43.08)"/><circle class="cls-20" cx="477.3" cy="286.96" r="5.18" transform="translate(-67.31 403.41) rotate(-43.08)"/><circle class="cls-20" cx="492.64" cy="303.36" r="5.18" transform="translate(-74.37 418.31) rotate(-43.08)"/><circle class="cls-20" cx="401.18" cy="173.69" r="5.18" transform="translate(-10.46 320.88) rotate(-43.08)"/><circle class="cls-20" cx="416.52" cy="190.09" r="5.18" transform="translate(-17.53 335.77) rotate(-43.08)"/><circle class="cls-20" cx="431.86" cy="206.48" r="5.18" transform="translate(-24.59 350.67) rotate(-43.08)"/><circle class="cls-20" cx="447.19" cy="222.88" r="5.18" transform="translate(-31.66 365.57) rotate(-43.08)"/><circle class="cls-20" cx="462.53" cy="239.28" r="5.18" transform="translate(-38.72 380.47) rotate(-43.08)"/><circle class="cls-20" cx="477.87" cy="255.68" r="5.18" transform="translate(-45.79 395.37) rotate(-43.08)"/><circle class="cls-20" cx="493.21" cy="272.08" r="5.18" transform="translate(-52.86 410.27) rotate(-43.08)"/><circle class="cls-20" cx="508.54" cy="288.48" r="5.18" transform="translate(-59.92 425.17) rotate(-43.08)"/><circle class="cls-20" cx="417.09" cy="158.81" r="5.18" transform="translate(3.99 327.73) rotate(-43.08)"/><circle class="cls-20" cx="432.43" cy="175.21" r="5.18" transform="translate(-3.07 342.63) rotate(-43.08)"/><circle class="cls-20" cx="447.76" cy="191.61" r="5.18" transform="translate(-10.14 357.53) rotate(-43.08)"/><circle class="cls-20" cx="463.1" cy="208" r="5.18" transform="translate(-17.21 372.43) rotate(-43.08)"/><circle class="cls-20" cx="478.44" cy="224.4" r="5.18" transform="translate(-24.27 387.32) rotate(-43.08)"/><circle class="cls-20" cx="493.78" cy="240.8" r="5.18" transform="translate(-31.34 402.22) rotate(-43.08)"/><circle class="cls-20" cx="509.11" cy="257.2" r="5.18" transform="translate(-38.4 417.12) rotate(-43.08)"/><circle class="cls-20" cx="524.45" cy="273.6" r="5.18" transform="translate(-45.47 432.02) rotate(-43.08)"/><circle class="cls-20" cx="433" cy="143.93" r="5.18" transform="translate(18.44 334.58) rotate(-43.08)"/><circle class="cls-20" cx="448.33" cy="160.33" r="5.18" transform="translate(11.38 349.48) rotate(-43.08)"/><circle class="cls-20" cx="463.67" cy="176.73" r="5.18" transform="translate(4.31 364.38) rotate(-43.08)"/><circle class="cls-20" cx="479.01" cy="193.13" r="5.18" transform="translate(-2.75 379.28) rotate(-43.08)"/><circle class="cls-20" cx="494.35" cy="209.53" r="5.18" transform="translate(-9.82 394.18) rotate(-43.08)"/><circle class="cls-20" cx="509.69" cy="225.92" r="5.18" transform="translate(-16.88 409.08) rotate(-43.08)"/><circle class="cls-20" cx="525.02" cy="242.32" r="5.18" transform="translate(-23.95 423.98) rotate(-43.08)"/><circle class="cls-20" cx="540.36" cy="258.72" r="5.18" transform="translate(-31.02 438.88) rotate(-43.08)"/><circle class="cls-20" cx="448.9" cy="129.05" r="5.18" transform="translate(32.9 341.44) rotate(-43.08)"/><circle class="cls-20" cx="464.24" cy="145.45" r="5.18" transform="translate(25.83 356.34) rotate(-43.08)"/><circle class="cls-20" cx="479.58" cy="161.85" r="5.18" transform="translate(18.77 371.24) rotate(-43.08)"/><circle class="cls-20" cx="494.92" cy="178.25" r="5.18" transform="translate(11.7 386.13) rotate(-43.08)"/><circle class="cls-20" cx="510.26" cy="194.65" r="5.18" transform="translate(4.63 401.03) rotate(-43.08)"/><circle class="cls-20" cx="525.59" cy="211.05" r="5.18" transform="translate(-2.43 415.93) rotate(-43.08)"/><circle class="cls-20" cx="540.93" cy="227.44" r="5.18" transform="translate(-9.5 430.83) rotate(-43.08)"/><circle class="cls-20" cx="556.27" cy="243.84" r="5.18" transform="translate(-16.56 445.73) rotate(-43.08)"/><circle class="cls-20" cx="464.81" cy="114.17" r="5.18" transform="translate(47.35 348.29) rotate(-43.08)"/><circle class="cls-20" cx="480.15" cy="130.57" r="5.18" transform="translate(40.28 363.19) rotate(-43.08)"/><circle class="cls-20" cx="495.49" cy="146.97" r="5.18" transform="translate(33.22 378.09) rotate(-43.08)"/><circle class="cls-20" cx="510.83" cy="163.37" r="5.18" transform="translate(26.15 392.99) rotate(-43.08)"/><circle class="cls-20" cx="526.16" cy="179.77" r="5.18" transform="translate(19.09 407.89) rotate(-43.08)"/><circle class="cls-20" cx="541.5" cy="196.17" r="5.18" transform="translate(12.02 422.79) rotate(-43.08)"/><circle class="cls-20" cx="556.84" cy="212.57" r="5.18" transform="translate(4.96 437.69) rotate(-43.08)"/><circle class="cls-20" cx="572.18" cy="228.96" r="5.18" transform="translate(-2.11 452.58) rotate(-43.08)"/><circle class="cls-20" cx="480.72" cy="99.29" r="5.18" transform="translate(61.8 355.15) rotate(-43.08)"/><circle class="cls-20" cx="496.06" cy="115.69" r="5.18" transform="translate(54.74 370.05) rotate(-43.08)"/><circle class="cls-20" cx="511.4" cy="132.09" r="5.18" transform="translate(47.67 384.94) rotate(-43.08)"/><circle class="cls-20" cx="526.73" cy="148.49" r="5.18" transform="translate(40.61 399.84) rotate(-43.08)"/><circle class="cls-20" cx="542.07" cy="164.89" r="5.18" transform="translate(33.54 414.74) rotate(-43.08)"/><circle class="cls-20" cx="557.41" cy="181.29" r="5.18" transform="translate(26.47 429.64) rotate(-43.08)"/><circle class="cls-20" cx="572.75" cy="197.69" r="5.18" transform="translate(19.41 444.54) rotate(-43.08)"/><circle class="cls-20" cx="588.08" cy="214.09" r="5.18" transform="translate(12.34 459.44) rotate(-43.08)"/></g></g><path class="cls-21" d="M408.19,220a39.42,39.42,0,0,0,4.85-12s.24,23.5-8,42.16-7.51,21.81-8.48,31S390.48,318,390.48,318L378.7,298.23Z"/><path class="cls-21" d="M497.07,220.22s4.51,3.18,5.68,18l-.36,9.49S500.38,226.2,497.07,220.22Z"/><path class="cls-9" d="M469.31,251.59a24,24,0,0,1-6,9.26l6.56,8.69h-9.3L457,264.9A25.56,25.56,0,0,1,447,266.8a23.88,23.88,0,0,1-13.38-3.62,22.45,22.45,0,0,1-8.31-9.84,33.47,33.47,0,0,1-2.78-13.84,33.81,33.81,0,0,1,2.82-14,23.61,23.61,0,0,1,43.23-.08,34,34,0,0,1,2.82,14.07A34.37,34.37,0,0,1,469.31,251.59Zm-18.45,5.15-8.69-11.59h9.3l5.26,7q3.35-5,3.36-12.81a26.78,26.78,0,0,0-1.49-9.15,14.73,14.73,0,0,0-4.46-6.56,11.73,11.73,0,0,0-14.37,0,15.12,15.12,0,0,0-4.54,6.6,26.16,26.16,0,0,0-1.53,9.15q0,7.7,3.47,12.81a11.16,11.16,0,0,0,9.8,5.11A12.2,12.2,0,0,0,450.86,256.74Z"/></g><path id="hand" class="cls-11" d="M389.29,218.4s7.47,2.44,18.89,1.61c0,0-1.92,19.93-14.77,44.85Z"/><g id="hand-2" data-name="hand"><path class="cls-10" d="M459.84,345.06c-11.12,7.83-16.81-7.83-10.76-7.2s10.58-2.14,10-3-5,0-5,0,.8-4.18,6.4-5.87a20.12,20.12,0,0,0,9.08-6.13,119.66,119.66,0,0,0,14.67-19.36l.11-.18.08-.13.1-.16.2-.32.14-.24h0c19.28-32.37,17.9-64.24,17.9-64.24,28-11.2,33.57-22.15,34.62-25.3h0a5.27,5.27,0,0,0,.23-.9C548.2,290.76,459.84,345.06,459.84,345.06Z"/><path class="cls-11" d="M537.37,212.89c-1.1,3.75-6.57,18.44-27.24,29.76-5.81,10.17-2.7,10.8-6,22.22-2.93,10.08-16.2,32.46-19.26,37.56,19.28-32.37,17.9-64.24,17.9-64.24C530.76,227,536.31,216,537.37,212.89Z"/></g></g><g id="boy_2" data-name="boy 2"><path id="body-2" data-name="body" class="cls-22" d="M274.41,157.42s24.48,17.94,59.79,0c0,0,43.27-1.14,56.09,65.76l3.13,16.51s-11.1,6.55-40.14,1.42L379.75,316s-112.17,3.42-140.92-2.28l21.64-75.16s-24.08,3.33-34.45-1.34C226,237.22,221.18,171.66,274.41,157.42Z"/><path class="cls-23" d="M260.46,238.56l5.26-16.06s.47,16.37-9,29.11Z"/><path class="cls-23" d="M353.27,241.12s-3.44-5.12-5.44-15.1c0,0,2.33,16.27,9.06,25.59Z"/><g id="paint-3" data-name="paint"><path class="cls-5" d="M238.83,313.72s-3.53,43.93,0,58.54h141.8s4.48-45.91-.87-56.27c0,0-31.38-.16-51.13-1.25S252.78,313.72,238.83,313.72Z"/><path class="cls-24" d="M378.7,338a.61.61,0,0,1-.38-.13l-18-14.25a.61.61,0,0,1,.76-1l18,14.25a.61.61,0,0,1-.38,1.09Z"/><polygon class="cls-24" points="313.03 351.65 309.82 372.27 316.08 372.27 313.03 351.65"/><path class="cls-24" d="M243.65,338a.61.61,0,0,1-.38-1.09l18-14.25a.61.61,0,1,1,.76,1l-18,14.25A.61.61,0,0,1,243.65,338Z"/></g><g id="hand_left-2" data-name="hand left"><path class="cls-10" d="M262.71,238.19s-5.37,17.11-10.95,38.94h0c-3.52,13.78-7.12,29.43-9.51,43.86-1.88,9.82-7.35,12.34-4.12,16.82s-1.68,12.19-8.26,3.64C225.9,331,222.58,269,226,237.22c0,0,3.76,2.65,21.17,2.07C251.48,239.15,256.61,238.81,262.71,238.19Z"/><path class="cls-11" d="M262.71,238.19s-5.37,17.11-10.95,38.94h0s.62-25.8,3.68-30.43c4.55-6.88-8.26-7.41-8.26-7.41C251.48,239.15,256.61,238.81,262.71,238.19Z"/></g><path class="cls-10" d="M382.35,354.57c-6.5,5.72-8.71-1.17-6.24-4.42,1.8-2.37.49-3.77-.35-4.36a1.33,1.33,0,0,1-.58-1c-.12-1.77-.67-8-3-29.84a214.19,214.19,0,0,0-4.1-23.69,452.86,452.86,0,0,0-14.79-50.14A132.21,132.21,0,0,0,374,242.39c12.82-.29,19.41-2.69,19.41-2.69C398.22,262.84,388.85,348.85,382.35,354.57Z"/><path class="cls-11" d="M360.66,259.65c2.31,6.06,7.36,22.8,7.41,31.61a452.86,452.86,0,0,0-14.79-50.14A132.21,132.21,0,0,0,374,242.39s-14.68-.31-16,3S358.35,253.59,360.66,259.65Z"/><g id="head-2" data-name="head"><g id="neck-2" data-name="neck"><path class="cls-10" d="M293.75,131.44s.93,17.94-19.34,26c0,0,22,17.86,59.79,0,0,0-22.26-3.13-22.13-26.66Z"/><path class="cls-11" d="M293.32,136s.68,3.73,3.42,5.46,3.6,5.63,6.22,4.37,2.5-2.53,5-3.33,4.42-6.59,4.42-6.59S297.27,130.52,293.32,136Z"/></g><g id="face-2" data-name="face"><path class="cls-10" d="M326.85,113.93c-2.9-2.9-5.63,1.88-5.63,1.88h0q.22-1.93.31-4s2.94-15.5,1.29-17.44-11,6.4-16.9.72-19.35-7.46-20.28,2.72-1,16.31-1,16.31,0,.76.15,2l-.07-.35s-2.74-4.77-5.63-1.88,6,8.79,7,9.43c1.67,6.25,5.23,13.68,12.83,15.43,10.43,2.4,17.63-4.19,20.81-15.37h0S330,117.06,326.85,113.93Z"/><path class="cls-11" d="M323.79,94.72s-5.14,1.77-6.91,3.14-9.54,2.26-12.36-2.5-18-7.91-18.66,13.08l-1.92-16.58,12.19-4,15.47.48Z"/><path class="cls-11" d="M296.77,126.36a20.25,20.25,0,0,0,3,.89,14.55,14.55,0,0,0,3,.28,12.58,12.58,0,0,0,1.49-.1c.25,0,.5-.07.75-.1l.37-.07.38-.07c1-.22,2-.52,3.1-.83h0a0,0,0,0,1,0,.08l-.69.43c-.24.13-.47.27-.72.39s-.49.24-.74.34l-.38.15-.39.13c-.26.1-.52.16-.78.24s-.53.13-.8.17a9.77,9.77,0,0,1-1.63.16,10,10,0,0,1-3.22-.5,9.18,9.18,0,0,1-2.88-1.51,0,0,0,0,1,0-.08Z"/><path class="cls-11" d="M303,117.51a6.15,6.15,0,0,1,1.29,1.39,5.12,5.12,0,0,1,.81,1.78,2.44,2.44,0,0,1,0,1.07,1.61,1.61,0,0,1-.23.53,1.77,1.77,0,0,1-.37.4,11.92,11.92,0,0,1-1.52,1.1,11.92,11.92,0,0,1,1.1-1.52,1.46,1.46,0,0,0,.13-.17.85.85,0,0,0,.09-.15,1.12,1.12,0,0,0,.1-.33,2.17,2.17,0,0,0,0-.77,8.66,8.66,0,0,0-.58-1.64Z"/></g><path id="hair" class="cls-25" d="M284.74,115.8s-.08-9-4.71-12.3-4.86-7.91,0-12.42c0,0-2-7,4.74-7s1-5.53,3.28-8.36,5.08-4,11.29-.9,2.6,5.76,16.83,1.58,13.67,9.68,11.07,15.29,4.6,5.27,1.45,10.12a158,158,0,0,0-7.46,14s.39-13-1.44-21.34c0,0-7.23,6.32-19.88-.11s-12.08,1.13-12.31,3.5S288.6,113.75,284.74,115.8Z"/></g><path class="cls-9" d="M318.93,253.08h-18.3l-4.27,13.12H285.69l19.22-53.38h9.91L334,266.19H323.28Zm-2.67-8.16-6.33-19h-.46l-6.18,19Z"/></g><g id="light"><path class="cls-22" d="M566.91,195l-.14,0-11.44-4.47.28-.71L563,192.7l-7.63-4.65a.38.38,0,0,1,.31-.69l8.57,2.73-5.78-3.15a.38.38,0,0,1,.28-.7l5.55,1.49-7.4-3.51a.38.38,0,0,1,.25-.71l6.21,1.53-3-1.1,0,0a1.72,1.72,0,0,1-.43-2.75c2.46-2.44,3.67-4.77,3.58-6.93,0-1.24-.28-2.8-.54-4.61-.79-5.39-1.87-12.76,1.36-17.32a14.26,14.26,0,0,1,7-5.54,9.74,9.74,0,0,1,7,.29c4.82,2.09,7.38,7.5,6.23,13.17S578,170.62,574.15,174a30.87,30.87,0,0,0-3.7,3.58c-1.24,1.63-1.92,3.93-2.15,7.24l-.76-.05c.24-3.46,1-5.9,2.3-7.65a31.16,31.16,0,0,1,3.81-3.69c3.81-3.36,9-8,10.13-13.41s-1.3-10.38-5.79-12.32c-5.37-2.32-10.26,1.06-13,5-3.05,4.31-2,11.51-1.23,16.77.27,1.83.5,3.41.55,4.69.09,2.38-1.19,4.9-3.81,7.5a1,1,0,0,0,.22,1.52l9.15,3.41a.38.38,0,0,1-.22.73l-9-2.21,7.8,3.7a.38.38,0,0,1-.26.71l-6.53-1.75,6.46,3.52a.38.38,0,0,1-.3.7l-9.34-3,8.64,5.26a.38.38,0,0,1-.2.71Z"/><path class="cls-22" d="M573.94,162.87a.53.53,0,0,1-.36-.13.57.57,0,0,1-.19-.33l0,0c-.27.23-.62.07-1.22-.24a1.83,1.83,0,0,1-1-1.27c-.37-1.7,1.46-4.05,1.54-4.15l.6.47c-.47.6-1.64,2.4-1.4,3.52a1.08,1.08,0,0,0,.61.76l.13.07a3.21,3.21,0,0,1,1.3-3.61c.46-.37,1-.75,1.37-.46s.17,1.12-.48,2.71a15.74,15.74,0,0,0-.64,1.75c.85-.5.92-.84.92-.93s-.23-.32-.23-.32l.38-.66a1.2,1.2,0,0,1,.61,1c0,.57-.45,1.1-1.37,1.63A1.14,1.14,0,0,1,573.94,162.87Zm.76-4.53-.31.23a2.48,2.48,0,0,0-1,3.06l0,.11a15.33,15.33,0,0,1,.65-1.79C574.32,159.45,574.6,158.76,574.71,158.34Z"/></g><rect class="cls-22" x="578.79" y="143.47" width="2.33" height="0.76" transform="translate(232.05 629.66) rotate(-68.32)"/><rect class="cls-22" x="571.03" y="138.32" width="0.76" height="5.36" transform="translate(-16.26 108.83) rotate(-10.73)"/><rect class="cls-22" x="563.73" y="145.16" width="0.76" height="2.68" transform="translate(52.27 425.25) rotate(-43.13)"/><rect class="cls-22" x="558.29" y="149.84" width="0.76" height="5.36" transform="translate(271.45 655.39) rotate(-75.54)"/><rect class="cls-22" x="584.5" y="147.01" width="5.36" height="0.76" transform="matrix(0.8, -0.6, 0.6, 0.8, 30.13, 384.47)"/><rect class="cls-22" x="587.64" y="154.84" width="2.68" height="0.76" transform="translate(-12.97 62.21) rotate(-5.98)"/><rect class="cls-22" x="588.64" y="160.6" width="0.76" height="5.36" transform="translate(190.63 626.83) rotate(-64.82)"/><path class="cls-22" d="M60.7,315.71a2.48,2.48,0,0,1-1.85-.83,25.15,25.15,0,0,1-3.18-4.67c-2-3.83-2.49-7.47-1.39-10.52,3.5-9.69-.81-13-2.23-14.05-1.86-1.41-5-1.31-7.24.25-2.46,1.73-3.16,4.77-2,8.55a2.49,2.49,0,1,1-4.75,1.5c-1.85-5.85-.42-11.13,3.84-14.12,4-2.82,9.53-2.88,13.13-.14,7.14,5.44,6.06,13.72,3.89,19.71-1.3,3.6,2.24,8.68,3.59,10.18a2.49,2.49,0,0,1-1.85,4.15Z"/><circle class="cls-22" cx="66.12" cy="320.07" r="3.12" transform="translate(-129.68 58.38) rotate(-25.13)"/><path class="cls-26" d="M366.27,112.82a2.68,2.68,0,0,1-1.27-2.94c.11-.46,2.75-11.28,10.63-13.39,10.72-2.87,11-8.71,11.06-10.62.11-2.51-1.95-5.26-4.68-6.25-3-1.11-6.16.14-8.77,3.53A2.68,2.68,0,0,1,369,79.87c4-5.24,9.58-7.22,14.86-5.3,5,1.81,8.41,6.66,8.2,11.53-.42,9.66-8.41,13.8-15,15.57-2.38.64-4.07,3.07-5.08,5a22,22,0,0,0-1.71,4.44,2.68,2.68,0,0,1-4,1.71Z"/><circle class="cls-26" cx="364.89" cy="119.5" r="3.37" transform="translate(78.8 375.58) rotate(-59.97)"/><path class="cls-6" d="M513.57,51.59a2.06,2.06,0,0,1-2.44-.25c-.27-.24-6.52-6-5-12.11,2.09-8.25-1.73-10.6-3-11.37a5.35,5.35,0,0,0-5.93.8c-1.88,1.62-2.2,4.18-.91,7.19a2.06,2.06,0,1,1-3.78,1.62c-2-4.65-1.25-9.11,2-11.92a9.39,9.39,0,0,1,10.78-1.18c6.31,3.89,6.1,10.78,4.81,15.88-.46,1.83.53,3.87,1.45,5.27a16.86,16.86,0,0,0,2.33,2.8,2.06,2.06,0,0,1-.33,3.28Z"/><circle class="cls-6" cx="517.53" cy="55.01" r="2.58" transform="translate(44.85 272.82) rotate(-30.81)"/><g id="light-2" data-name="light"><path class="cls-6" d="M97.42,126.21a.38.38,0,0,1-.09-.75l7-1.66-8.16.47a.38.38,0,0,1-.13-.75l7.88-2.41-5.93.63a.38.38,0,0,1-.17-.74l4.87-1.73-7.37,1.2a.38.38,0,0,1-.2-.73l5.27-2-2.52.64h0A1.64,1.64,0,0,1,96,116.45c.6-3.2.29-5.65-.92-7.27-.7-.93-1.71-2-2.89-3.28-3.5-3.76-8.28-8.9-8.22-14.17a13.46,13.46,0,0,1,2.43-8A9.2,9.2,0,0,1,92,80.16c4.86-1,9.76,1.87,11.9,6.89s.54,11.54-.64,16.29a29.08,29.08,0,0,0-1,4.76c-.09,1.92.61,4.07,2.21,6.75a.38.38,0,1,1-.66.39c-1.67-2.82-2.41-5.1-2.31-7.18a29.36,29.36,0,0,1,1-4.91c1.16-4.64,2.74-11,.68-15.8S96.7,80,92.19,80.91C86.8,82,84.82,87.2,84.76,91.74c-.06,5,4.61,10,8,13.64,1.19,1.28,2.21,2.38,2.94,3.34,1.35,1.8,1.71,4.45,1.06,7.87a.88.88,0,0,0,1,1l8.92-2.26a.38.38,0,0,1,.23.73l-7.93,3,7.81-1.27a.38.38,0,0,1,.19.74l-5.82,2.07,6.7-.71a.38.38,0,0,1,.15.74l-8.66,2.64,9.33-.53a.38.38,0,0,1,.11.75L97.51,126.2Z"/><path class="cls-6" d="M95.11,95.26a1.7,1.7,0,0,1-1.2-.47c-1.2-1.12-1-3.94-1-4.06a.38.38,0,0,1,.76,0c0,.72,0,2.73.79,3.46a1,1,0,0,0,.86.26h.09A3,3,0,0,1,94.48,91c.16-.54.36-1.12.84-1.11s.72.68,1.06,2.16a.38.38,0,0,1,.28-.16,1.16,1.16,0,0,1,1,.44c.31.45.25,1.11-.19,2-.19.39-.42.57-.7.53a.55.55,0,0,1-.31-.14v0c-.1.35-.52.41-1.1.48Zm.2-4.35c0,.08-.06.17-.09.29a2.32,2.32,0,0,0,.87,2.87l0,0a16,16,0,0,1-.43-1.67C95.58,92,95.44,91.31,95.31,90.92Zm1.2,1.68a12.52,12.52,0,0,0,.35,1.31c.36-.8.25-1.08.2-1.14s-.33-.12-.33-.12A.38.38,0,0,1,96.51,92.6Z"/></g><path class="cls-6" d="M91.87,78.26a.38.38,0,0,1-.37-.3L91,75.83a.38.38,0,0,1,.74-.17l.49,2.14a.38.38,0,0,1-.29.46Z"/><path class="cls-6" d="M85.27,81.33a.38.38,0,0,1-.27-.11l-3.59-3.55a.38.38,0,1,1,.54-.54l3.59,3.55a.38.38,0,0,1-.27.65Z"/><path class="cls-6" d="M82,88h-.08l-2.47-.54a.38.38,0,1,1,.16-.75l2.47.54A.38.38,0,0,1,82,88Z"/><path class="cls-6" d="M77.39,96.17a.38.38,0,0,1-.13-.74L82,93.69a.38.38,0,1,1,.26.72l-4.74,1.74Z"/><path class="cls-6" d="M98.33,78.47l-.12,0A.38.38,0,0,1,98,78l1.58-4.79a.38.38,0,1,1,.72.24l-1.58,4.79A.38.38,0,0,1,98.33,78.47Z"/><path class="cls-6" d="M103.75,82a.38.38,0,0,1-.25-.67l1.92-1.64a.38.38,0,0,1,.5.58L104,81.9A.38.38,0,0,1,103.75,82Z"/><path class="cls-6" d="M106.56,87.81a.38.38,0,0,1-.06-.76l5-.83a.38.38,0,1,1,.13.75l-5,.83Z"/><g id="head-3" data-name="head"><path id="hair-2" data-name="hair" class="cls-27" d="M458.07,86.79s-16.51-8.8-34.64,13.82S414,150.67,439.6,144.93l10.58,1.63,10.74-1.63s12.58,3.07,20.66-5.55S484.22,81.56,458.07,86.79Z"/><g id="face-3" data-name="face"><g id="neck-3" data-name="neck"><path class="cls-10" d="M439,135.55s8.2,15.58-10,23.83c0,0,22.45,20.42,46.37.15,0,0-16.55-8.19-15-20.19Z"/></g><path class="cls-11" d="M440.33,138.87s3,27.95,20.59,2.63Z"/><path class="cls-10" d="M470.74,128.2h0c-.43,5.47-9.81,16.73-18.65,17.36-23,1.65-16.51-38.37-16.51-38.37,10.29,2.36,19.61-11.25,19.61-11.25.54,12,16.72,18,16.72,18s5.25-6.75,6.54,2.25S470.87,128.16,470.74,128.2Z"/><path class="cls-11" d="M471.92,113.95c-11.79-.09-17.63-11.26-17.63-11.26-12.35,11.68-18.7,4.51-18.7,4.51,10.29,2.36,19.61-11.25,19.61-11.25C455.73,107.94,471.92,113.95,471.92,113.95Z"/></g><path class="cls-27" d="M484.45,116.51c-.16-1.89-.44-3.77-.78-5.64s-.78-3.71-1.3-5.54A36,36,0,0,0,477.8,95,19.2,19.2,0,0,0,474,90.84a19.56,19.56,0,0,0-2.3-1.64,18.24,18.24,0,0,0-2.51-1.29,18.46,18.46,0,0,0-5.46-1.37,18.12,18.12,0,0,0-2.82,0,14.53,14.53,0,0,0-2.78.43h-.05l0,0a21.27,21.27,0,0,0-4.81-1.48,26.27,26.27,0,0,0-5-.46,25.8,25.8,0,0,0-9.83,2,14.32,14.32,0,0,0-2.19,1.25c-.34.25-.68.49-1,.77s-.63.55-.94.84a19.46,19.46,0,0,0-3.1,4A25.89,25.89,0,0,0,429,98.4q-.43,1.19-.75,2.42a23.73,23.73,0,0,0-.53,2.48,23.74,23.74,0,0,1,.5-2.49q.31-1.23.72-2.44a26,26,0,0,1,2.1-4.63,19.3,19.3,0,0,1,3.1-4c.31-.29.61-.59.95-.85s.67-.53,1-.78a14.52,14.52,0,0,1,2.21-1.28,15.21,15.21,0,0,1,2.39-.89l.61-.19.3-.09.31-.07,1.24-.29.31-.07.31,0,.63-.1c.42-.06.84-.15,1.26-.17l1.27-.11,1.27,0a26.52,26.52,0,0,1,5.07.45,21.49,21.49,0,0,1,4.88,1.49H458a14.46,14.46,0,0,1,2.84-.44,18.4,18.4,0,0,1,2.86.05,18.72,18.72,0,0,1,5.53,1.41A18.49,18.49,0,0,1,471.81,89a19.79,19.79,0,0,1,2.33,1.66A19.05,19.05,0,0,1,478,94.87a36.16,36.16,0,0,1,4.52,10.43c.5,1.83.91,3.69,1.23,5.56S484.32,114.61,484.45,116.51Z"/><path class="cls-27" d="M484.53,131.71a17.36,17.36,0,0,1-1.31,5.18,15.29,15.29,0,0,1-1.25,2.38,12.94,12.94,0,0,1-1.67,2.11,12.51,12.51,0,0,1-2.1,1.7,12.35,12.35,0,0,1-2.43,1.17l-.65.19-.32.09-.33.07-.66.14-.67.09-.33,0-.33,0-.67,0c-.45,0-.89,0-1.34,0l.67,0c.22,0,.45,0,.67,0l.66-.07.33,0,.33-.06.66-.11.65-.16.32-.08.32-.1.63-.21a13.54,13.54,0,0,0,2.37-1.18,12.31,12.31,0,0,0,2-1.68,14.69,14.69,0,0,0,2.93-4.38,19.18,19.18,0,0,0,.92-2.49A18.35,18.35,0,0,0,484.53,131.71Z"/><path class="cls-27" d="M413.08,125.52a18.09,18.09,0,0,0,.2,3.47,19.81,19.81,0,0,0,.78,3.38,20,20,0,0,0,1.35,3.19,18.62,18.62,0,0,0,4.35,5.34l.33.28.35.26.7.52.73.48.36.24.38.22.75.43.78.39c.51.27,1.06.48,1.59.71.26.12.54.21.81.32l.82.3,1.67.52c-.56-.15-1.13-.29-1.69-.45l-.83-.27c-.28-.09-.56-.17-.83-.29-.54-.22-1.09-.42-1.61-.68l-.79-.37-.77-.42-.38-.21-.37-.23-.74-.48-.71-.52-.35-.26-.34-.28a17.39,17.39,0,0,1-2.48-2.49,18.07,18.07,0,0,1-3.26-6.18,19.78,19.78,0,0,1-.71-3.43c-.07-.58-.11-1.16-.12-1.75A13.41,13.41,0,0,1,413.08,125.52Z"/></g></svg>